<?xml version="1.0" encoding="UTF-8" standalone="no"?>
<!DOCTYPE svg PUBLIC "-//W3C//DTD SVG 1.1//EN" "http://www.w3.org/Graphics/SVG/1.1/DTD/svg11.dtd">
<svg width="100%" height="100%" viewBox="0 0 985 1750" version="1.1" xmlns="http://www.w3.org/2000/svg" xmlns:xlink="http://www.w3.org/1999/xlink" xml:space="preserve" xmlns:serif="http://www.serif.com/" style="fill-rule:evenodd;clip-rule:evenodd;stroke-linejoin:round;stroke-miterlimit:1.41421;">
    <g transform="matrix(4.16667,0,0,4.16667,0,0)">
        <g id="Artboard1" transform="matrix(0.430304,0,0,0.797832,-133.853,87.9315)">
            <rect x="311.068" y="-110.213" width="548.866" height="526.132" style="fill:none;"/>
            <clipPath id="_clip1">
                <rect x="311.068" y="-110.213" width="548.866" height="526.132"/>
            </clipPath>
            <g clip-path="url(#_clip1)">
                <g transform="matrix(4.2434,0,0,1.93923,-12722.6,-3686.7)">
                    <rect x="3079.02" y="1965.05" width="19.26" height="103.868" style="fill:url(#_Linear2);"/>
                </g>
                <g transform="matrix(4.25848,0,0,2.29677,-12768.6,-4426.61)">
                    <path d="M3086.72,1880.27L3120.28,1880.27C3129.88,1880.27 3138.59,1881.29 3146.41,1883.34C3154.23,1885.38 3160.95,1888.49 3166.55,1892.67C3172.14,1896.85 3176.46,1902.09 3179.48,1908.4C3182.5,1914.72 3184.01,1922.14 3184.01,1930.67C3184.01,1939.2 3182.46,1946.63 3179.35,1952.94C3176.23,1959.25 3171.88,1964.49 3166.28,1968.67C3160.68,1972.85 3153.92,1976 3146.01,1978.14C3138.1,1980.27 3129.35,1981.34 3119.74,1981.34L3086.14,1981.34L3078.92,1981.29L3098.87,1965.1L3102.35,1965.1L3118.68,1965.07C3133.79,1965.07 3145.26,1962.14 3153.08,1956.27C3160.9,1950.4 3164.81,1941.87 3164.81,1930.67C3164.81,1918.94 3160.77,1910.36 3152.68,1904.94C3144.59,1899.52 3133.26,1896.8 3118.68,1896.8L3090.92,1896.8L3090.92,1896.8L3078.92,1896.8L3086.72,1880.27Z" style="fill:url(#_Linear3);"/>
                </g>
                <g transform="matrix(4.25848,0,0,2.29677,-5135.54,-3056.53)">
                    <path d="M1389.88,1348.34C1389.13,1351.21 1388.14,1353.9 1386.9,1356.42C1383.79,1362.73 1379.43,1367.97 1373.84,1372.15C1368.24,1376.33 1361.48,1379.48 1353.57,1381.62C1345.66,1383.75 1336.9,1384.82 1327.3,1384.82L1293.7,1384.82L1286.48,1384.77L1306.42,1368.58L1309.91,1368.58L1326.24,1368.55C1341.35,1368.55 1352.81,1365.62 1360.63,1359.75C1364.73,1356.68 1367.76,1352.87 1369.71,1348.34L1389.88,1348.34Z" style="fill:url(#_Linear4);"/>
                </g>
                <g transform="matrix(4.25848,0,0,2.29677,-12085.1,-3994.08)">
                    <path d="M2918.45,1708.47L2926.39,1691.95C2926.39,1691.95 2926.37,1691.95 2926.39,1691.95L3043.39,1879.86L3019.92,1879.86L2918.45,1708.47Z" style="fill:white;fill-rule:nonzero;"/>
                </g>
                <g transform="matrix(2.52757,0,0,1.2534,-14238.2,-483.343)">
                    <text x="5756.91px" y="698.156px" style="font-family:'AvenirNext-Regular', 'Avenir Next', sans-serif;font-size:66.667px;fill:white;">e<tspan x="5802.04px 5838.64px 5866.77px 5890.44px 5939.57px " y="698.156px 698.156px 698.156px 698.156px 698.156px ">stige</tspan></text>
                </g>
            </g>
        </g>
    </g>
    <defs>
        <linearGradient id="_Linear2" x1="0" y1="0" x2="1" y2="0" gradientUnits="userSpaceOnUse" gradientTransform="matrix(3.43039e-15,-66.1166,56.0224,4.04847e-15,3088.06,2017.99)"><stop offset="0" style="stop-color:white;stop-opacity:1"/><stop offset="0.44" style="stop-color:rgb(193,196,202);stop-opacity:1"/><stop offset="1" style="stop-color:rgb(49,61,80);stop-opacity:1"/></linearGradient>
        <linearGradient id="_Linear3" x1="0" y1="0" x2="1" y2="0" gradientUnits="userSpaceOnUse" gradientTransform="matrix(67.4069,35.3311,-35.3311,67.4069,3080.59,1868.91)"><stop offset="0" style="stop-color:rgb(27,32,40);stop-opacity:1"/><stop offset="0.52" style="stop-color:rgb(195,196,199);stop-opacity:1"/><stop offset="1" style="stop-color:white;stop-opacity:1"/></linearGradient>
        <linearGradient id="_Linear4" x1="0" y1="0" x2="1" y2="0" gradientUnits="userSpaceOnUse" gradientTransform="matrix(193.603,-18.9975,18.9975,193.603,1174.83,1390.95)"><stop offset="0" style="stop-color:rgb(49,61,80);stop-opacity:1"/><stop offset="0.59" style="stop-color:rgb(86,96,112);stop-opacity:1"/><stop offset="0.81" style="stop-color:rgb(170,175,183);stop-opacity:1"/><stop offset="1" style="stop-color:white;stop-opacity:1"/></linearGradient>
    </defs>
</svg>
